<mxfile host="Electron" agent="Mozilla/5.0 (Windows NT 10.0; Win64; x64) AppleWebKit/537.36 (KHTML, like Gecko) draw.io/26.0.9 Chrome/128.0.6613.186 Electron/32.2.5 Safari/537.36" version="26.0.9">
  <diagram name="Page-1" id="ivJk8TvOLI-8SvMgrksx">
    <mxGraphModel dx="500" dy="300" grid="1" gridSize="10" guides="1" tooltips="1" connect="1" arrows="1" fold="1" page="1" pageScale="1" pageWidth="850" pageHeight="1100" math="0" shadow="0">
      <root>
        <mxCell id="0" />
        <mxCell id="1" parent="0" />
        <mxCell id="OxcnKM746p2botHtyYPD-1" value="SD Patientendaten" style="shape=umlFrame;whiteSpace=wrap;html=1;pointerEvents=0;recursiveResize=0;container=1;collapsible=0;width=160;" parent="1" vertex="1">
          <mxGeometry x="10" y="10" width="420" height="620" as="geometry" />
        </mxCell>
        <mxCell id="OxcnKM746p2botHtyYPD-16" value="model: PatientModel" style="shape=umlLifeline;perimeter=lifelinePerimeter;whiteSpace=wrap;html=1;container=1;dropTarget=0;collapsible=0;recursiveResize=0;outlineConnect=0;portConstraint=eastwest;newEdgeStyle={&quot;edgeStyle&quot;:&quot;elbowEdgeStyle&quot;,&quot;elbow&quot;:&quot;vertical&quot;,&quot;curved&quot;:0,&quot;rounded&quot;:0};" parent="OxcnKM746p2botHtyYPD-1" vertex="1">
          <mxGeometry x="140" y="40" width="100" height="560" as="geometry" />
        </mxCell>
        <mxCell id="OxcnKM746p2botHtyYPD-24" value="" style="html=1;points=[[0,0,0,0,5],[0,1,0,0,-5],[1,0,0,0,5],[1,1,0,0,-5]];perimeter=orthogonalPerimeter;outlineConnect=0;targetShapes=umlLifeline;portConstraint=eastwest;newEdgeStyle={&quot;curved&quot;:0,&quot;rounded&quot;:0};" parent="OxcnKM746p2botHtyYPD-16" vertex="1">
          <mxGeometry x="45" y="60" width="10" height="350" as="geometry" />
        </mxCell>
        <mxCell id="OxcnKM746p2botHtyYPD-30" value="" style="html=1;points=[[0,0,0,0,5],[0,1,0,0,-5],[1,0,0,0,5],[1,1,0,0,-5]];perimeter=orthogonalPerimeter;outlineConnect=0;targetShapes=umlLifeline;portConstraint=eastwest;newEdgeStyle={&quot;curved&quot;:0,&quot;rounded&quot;:0};" parent="OxcnKM746p2botHtyYPD-16" vertex="1">
          <mxGeometry x="52.5" y="110" width="10" height="270" as="geometry" />
        </mxCell>
        <mxCell id="OxcnKM746p2botHtyYPD-31" value="notifyObservers()" style="html=1;align=left;spacingLeft=2;endArrow=block;rounded=0;edgeStyle=orthogonalEdgeStyle;curved=0;rounded=0;" parent="OxcnKM746p2botHtyYPD-16" source="OxcnKM746p2botHtyYPD-24" target="OxcnKM746p2botHtyYPD-30" edge="1">
          <mxGeometry relative="1" as="geometry">
            <mxPoint x="57.5" y="90" as="sourcePoint" />
            <Array as="points">
              <mxPoint x="88" y="100" />
              <mxPoint x="88" y="130" />
            </Array>
          </mxGeometry>
        </mxCell>
        <mxCell id="OxcnKM746p2botHtyYPD-44" value="" style="html=1;points=[[0,0,0,0,5],[0,1,0,0,-5],[1,0,0,0,5],[1,1,0,0,-5]];perimeter=orthogonalPerimeter;outlineConnect=0;targetShapes=umlLifeline;portConstraint=eastwest;newEdgeStyle={&quot;curved&quot;:0,&quot;rounded&quot;:0};" parent="OxcnKM746p2botHtyYPD-16" vertex="1">
          <mxGeometry x="58" y="160" width="10" height="35" as="geometry" />
        </mxCell>
        <mxCell id="OxcnKM746p2botHtyYPD-17" value="tableView: TableView" style="shape=umlLifeline;perimeter=lifelinePerimeter;whiteSpace=wrap;html=1;container=1;dropTarget=0;collapsible=0;recursiveResize=0;outlineConnect=0;portConstraint=eastwest;newEdgeStyle={&quot;edgeStyle&quot;:&quot;elbowEdgeStyle&quot;,&quot;elbow&quot;:&quot;vertical&quot;,&quot;curved&quot;:0,&quot;rounded&quot;:0};" parent="OxcnKM746p2botHtyYPD-1" vertex="1">
          <mxGeometry x="260" y="40" width="100" height="520" as="geometry" />
        </mxCell>
        <mxCell id="OxcnKM746p2botHtyYPD-32" value="" style="html=1;points=[[0,0,0,0,5],[0,1,0,0,-5],[1,0,0,0,5],[1,1,0,0,-5]];perimeter=orthogonalPerimeter;outlineConnect=0;targetShapes=umlLifeline;portConstraint=eastwest;newEdgeStyle={&quot;curved&quot;:0,&quot;rounded&quot;:0};" parent="OxcnKM746p2botHtyYPD-17" vertex="1">
          <mxGeometry x="45" y="140" width="10" height="180" as="geometry" />
        </mxCell>
        <mxCell id="OxcnKM746p2botHtyYPD-38" value="" style="html=1;points=[[0,0,0,0,5],[0,1,0,0,-5],[1,0,0,0,5],[1,1,0,0,-5]];perimeter=orthogonalPerimeter;outlineConnect=0;targetShapes=umlLifeline;portConstraint=eastwest;newEdgeStyle={&quot;curved&quot;:0,&quot;rounded&quot;:0};" parent="OxcnKM746p2botHtyYPD-17" vertex="1">
          <mxGeometry x="50" y="210" width="10" height="30" as="geometry" />
        </mxCell>
        <mxCell id="OxcnKM746p2botHtyYPD-39" value="display()" style="html=1;align=left;spacingLeft=2;endArrow=block;rounded=0;edgeStyle=orthogonalEdgeStyle;curved=0;rounded=0;" parent="OxcnKM746p2botHtyYPD-17" target="OxcnKM746p2botHtyYPD-38" edge="1">
          <mxGeometry relative="1" as="geometry">
            <mxPoint x="55" y="190" as="sourcePoint" />
            <Array as="points">
              <mxPoint x="85" y="220" />
            </Array>
          </mxGeometry>
        </mxCell>
        <mxCell id="OxcnKM746p2botHtyYPD-20" value=": Controller" style="shape=umlLifeline;perimeter=lifelinePerimeter;whiteSpace=wrap;html=1;container=1;dropTarget=0;collapsible=0;recursiveResize=0;outlineConnect=0;portConstraint=eastwest;newEdgeStyle={&quot;edgeStyle&quot;:&quot;elbowEdgeStyle&quot;,&quot;elbow&quot;:&quot;vertical&quot;,&quot;curved&quot;:0,&quot;rounded&quot;:0};" parent="OxcnKM746p2botHtyYPD-1" vertex="1">
          <mxGeometry x="20" y="40" width="100" height="580" as="geometry" />
        </mxCell>
        <mxCell id="OxcnKM746p2botHtyYPD-21" value="" style="html=1;points=[[0,0,0,0,5],[0,1,0,0,-5],[1,0,0,0,5],[1,1,0,0,-5]];perimeter=orthogonalPerimeter;outlineConnect=0;targetShapes=umlLifeline;portConstraint=eastwest;newEdgeStyle={&quot;curved&quot;:0,&quot;rounded&quot;:0};" parent="OxcnKM746p2botHtyYPD-20" vertex="1">
          <mxGeometry x="45" y="40" width="10" height="390" as="geometry" />
        </mxCell>
        <mxCell id="OxcnKM746p2botHtyYPD-25" value="setData()" style="html=1;verticalAlign=bottom;endArrow=block;curved=0;rounded=0;entryX=0;entryY=0;entryDx=0;entryDy=5;" parent="OxcnKM746p2botHtyYPD-1" source="OxcnKM746p2botHtyYPD-21" target="OxcnKM746p2botHtyYPD-24" edge="1">
          <mxGeometry relative="1" as="geometry">
            <mxPoint x="110" y="105" as="sourcePoint" />
          </mxGeometry>
        </mxCell>
        <mxCell id="OxcnKM746p2botHtyYPD-26" value="" style="html=1;verticalAlign=bottom;endArrow=open;dashed=1;endSize=8;curved=0;rounded=0;exitX=0;exitY=1;exitDx=0;exitDy=-5;" parent="OxcnKM746p2botHtyYPD-1" source="OxcnKM746p2botHtyYPD-24" target="OxcnKM746p2botHtyYPD-21" edge="1">
          <mxGeometry relative="1" as="geometry">
            <mxPoint x="110" y="175" as="targetPoint" />
          </mxGeometry>
        </mxCell>
        <mxCell id="OxcnKM746p2botHtyYPD-33" value="update()" style="html=1;verticalAlign=bottom;endArrow=block;curved=0;rounded=0;entryX=0;entryY=0;entryDx=0;entryDy=5;" parent="OxcnKM746p2botHtyYPD-1" source="OxcnKM746p2botHtyYPD-30" target="OxcnKM746p2botHtyYPD-32" edge="1">
          <mxGeometry relative="1" as="geometry">
            <mxPoint x="235" y="185" as="sourcePoint" />
          </mxGeometry>
        </mxCell>
        <mxCell id="OxcnKM746p2botHtyYPD-34" value="" style="html=1;verticalAlign=bottom;endArrow=open;dashed=1;endSize=8;curved=0;rounded=0;exitX=0;exitY=1;exitDx=0;exitDy=-5;" parent="OxcnKM746p2botHtyYPD-1" edge="1">
          <mxGeometry relative="1" as="geometry">
            <mxPoint x="202.5" y="350" as="targetPoint" />
            <mxPoint x="305" y="350" as="sourcePoint" />
          </mxGeometry>
        </mxCell>
        <mxCell id="OxcnKM746p2botHtyYPD-36" value="getData()" style="html=1;verticalAlign=bottom;endArrow=block;curved=0;rounded=0;" parent="OxcnKM746p2botHtyYPD-1" target="OxcnKM746p2botHtyYPD-44" edge="1">
          <mxGeometry relative="1" as="geometry">
            <mxPoint x="305" y="205" as="sourcePoint" />
            <mxPoint x="235" y="205" as="targetPoint" />
          </mxGeometry>
        </mxCell>
        <mxCell id="OxcnKM746p2botHtyYPD-37" value="string[]" style="html=1;verticalAlign=bottom;endArrow=open;dashed=1;endSize=8;curved=0;rounded=0;" parent="OxcnKM746p2botHtyYPD-1" source="OxcnKM746p2botHtyYPD-44" target="OxcnKM746p2botHtyYPD-32" edge="1">
          <mxGeometry relative="1" as="geometry">
            <mxPoint x="274" y="230" as="targetPoint" />
            <mxPoint x="204" y="230" as="sourcePoint" />
            <Array as="points">
              <mxPoint x="280" y="220" />
            </Array>
          </mxGeometry>
        </mxCell>
        <mxCell id="OxcnKM746p2botHtyYPD-42" value="" style="html=1;align=left;spacingLeft=2;endArrow=open;rounded=0;edgeStyle=orthogonalEdgeStyle;curved=0;rounded=0;dashed=1;endFill=0;" parent="OxcnKM746p2botHtyYPD-1" source="OxcnKM746p2botHtyYPD-30" edge="1">
          <mxGeometry relative="1" as="geometry">
            <mxPoint x="190" y="400" as="sourcePoint" />
            <Array as="points">
              <mxPoint x="220" y="400" />
              <mxPoint x="220" y="430" />
            </Array>
            <mxPoint x="195" y="430" as="targetPoint" />
          </mxGeometry>
        </mxCell>
        <mxCell id="OxcnKM746p2botHtyYPD-43" value="" style="html=1;align=left;spacingLeft=2;endArrow=open;rounded=0;edgeStyle=orthogonalEdgeStyle;curved=0;rounded=0;dashed=1;endFill=0;" parent="OxcnKM746p2botHtyYPD-1" edge="1">
          <mxGeometry relative="1" as="geometry">
            <mxPoint x="322" y="270" as="sourcePoint" />
            <Array as="points">
              <mxPoint x="339" y="270" />
              <mxPoint x="339" y="300" />
            </Array>
            <mxPoint x="314" y="300" as="targetPoint" />
          </mxGeometry>
        </mxCell>
      </root>
    </mxGraphModel>
  </diagram>
</mxfile>
